<svg width="751" height="494" viewBox="0 0 751 494" fill="none" xmlns="http://www.w3.org/2000/svg">
<path d="M172.881 5.94319V86.6476H251.723V338.709" stroke="white" stroke-width="4" stroke-miterlimit="10" stroke-linecap="round"/>
<path d="M64.885 5.94319V213.317H172.881V349.881" stroke="white" stroke-width="4" stroke-miterlimit="10" stroke-linecap="round"/>
<path d="M151.92 275.561V122.983H349.079V5.94319H561.667V50.578H649.925" stroke="white" stroke-width="4" stroke-miterlimit="10" stroke-linecap="round"/>
<path d="M70.3113 211.614C70.3113 214.594 67.9173 217.041 64.8849 217.041C61.9057 217.041 59.4585 214.594 59.4585 211.614C59.4585 208.582 61.9057 206.188 64.8849 206.188C67.9173 206.188 70.3113 208.582 70.3113 211.614Z" fill="white"/>
<path d="M181.552 211.614C181.552 214.594 179.105 217.041 176.073 217.041C173.094 217.041 170.646 214.594 170.646 211.614C170.646 208.582 173.094 206.188 176.073 206.188C179.105 206.188 181.552 208.582 181.552 211.614Z" fill="white"/>
<path d="M177.935 6.3156C177.935 9.2948 175.488 11.742 172.508 11.742C169.476 11.742 167.082 9.2948 167.082 6.3156C167.082 3.2832 169.476 0.835999 172.508 0.835999C175.488 0.835999 177.935 3.2832 177.935 6.3156Z" fill="white"/>
<path d="M70.3113 6.3156C70.3113 9.2948 67.9173 11.742 64.8849 11.742C61.9057 11.742 59.4585 9.2948 59.4585 6.3156C59.4585 3.2832 61.9057 0.835999 64.8849 0.835999C67.9173 0.835999 70.3113 3.2832 70.3113 6.3156Z" fill="white"/>
<path d="M354.665 7.1136C354.665 10.0928 352.218 12.54 349.186 12.54C346.206 12.54 343.759 10.0928 343.759 7.1136C343.759 4.0812 346.206 1.634 349.186 1.634C352.218 1.634 354.665 4.0812 354.665 7.1136Z" fill="white"/>
<path d="M567.093 7.1136C567.093 10.0928 564.646 12.54 561.667 12.54C558.634 12.54 556.187 10.0928 556.187 7.1136C556.187 4.0812 558.634 1.634 561.667 1.634C564.646 1.634 567.093 4.0812 567.093 7.1136Z" fill="white"/>
<path d="M567.093 50.6844C567.093 53.7168 564.646 56.1108 561.667 56.1108C558.634 56.1108 556.187 53.7168 556.187 50.6844C556.187 47.7052 558.634 45.258 561.667 45.258C564.646 45.258 567.093 47.7052 567.093 50.6844Z" fill="white"/>
<path d="M682.43 132.293C682.43 135.272 680.036 137.72 677.004 137.72C673.972 137.72 671.578 135.272 671.578 132.293C671.578 129.261 673.972 126.814 677.004 126.814C680.036 126.814 682.43 129.261 682.43 132.293Z" fill="white"/>
<path d="M561.666 181.397C561.666 184.429 559.219 186.823 556.187 186.823C553.208 186.823 550.76 184.429 550.76 181.397C550.76 178.364 553.208 175.97 556.187 175.97C559.219 175.97 561.666 178.364 561.666 181.397Z" fill="white"/>
<path d="M718.553 181.397C718.553 184.429 716.106 186.823 713.074 186.823C710.095 186.823 707.647 184.429 707.647 181.397C707.647 178.364 710.095 175.97 713.074 175.97C716.106 175.97 718.553 178.364 718.553 181.397Z" fill="white"/>
<path d="M663.119 263.538C663.119 266.57 660.672 268.964 657.639 268.964C654.66 268.964 652.213 266.57 652.213 263.538C652.213 260.558 654.66 258.111 657.639 258.111C660.672 258.111 663.119 260.558 663.119 263.538Z" fill="white"/>
<path d="M663.119 438.619C663.119 441.598 660.672 444.045 657.639 444.045C654.66 444.045 652.213 441.598 652.213 438.619C652.213 435.586 654.66 433.139 657.639 433.139C660.672 433.139 663.119 435.586 663.119 438.619Z" fill="white"/>
<path d="M718.553 438.619C718.553 441.598 716.106 444.045 713.074 444.045C710.095 444.045 707.647 441.598 707.647 438.619C707.647 435.586 710.095 433.139 713.074 433.139C716.106 433.139 718.553 435.586 718.553 438.619Z" fill="white"/>
<path d="M594.704 132.293C594.704 135.272 592.257 137.72 589.277 137.72C586.245 137.72 583.798 135.272 583.798 132.293C583.798 129.261 586.245 126.814 589.277 126.814C592.257 126.814 594.704 129.261 594.704 132.293Z" fill="white"/>
<path d="M177.935 87.6052C177.935 90.6376 175.488 93.0848 172.508 93.0848C169.476 93.0848 167.082 90.6376 167.082 87.6052C167.082 84.626 169.476 82.1788 172.508 82.1788C175.488 82.1788 177.935 84.626 177.935 87.6052Z" fill="white"/>
<path d="M257.15 87.6052C257.15 90.6376 254.702 93.0848 251.723 93.0848C248.691 93.0848 246.244 90.6376 246.244 87.6052C246.244 84.626 248.691 82.1788 251.723 82.1788C254.702 82.1788 257.15 84.626 257.15 87.6052Z" fill="white"/>
<path d="M354.665 123.196C354.665 126.175 352.218 128.622 349.186 128.622C346.206 128.622 343.759 126.175 343.759 123.196C343.759 120.164 346.206 117.716 349.186 117.716C352.218 117.716 354.665 120.164 354.665 123.196Z" fill="white"/>
<path d="M157.4 122.983C157.4 125.962 154.952 128.41 151.92 128.41C148.941 128.41 146.494 125.962 146.494 122.983C146.494 119.951 148.941 117.504 151.92 117.504C154.952 117.504 157.4 119.951 157.4 122.983Z" fill="white"/>
<path d="M555.974 276.997V181.397H713.074V338.709" stroke="white" stroke-width="4" stroke-miterlimit="10" stroke-linecap="round"/>
<path d="M589.277 253.749V132.293H677.004V46.2688" stroke="white" stroke-width="4" stroke-miterlimit="10" stroke-linecap="round"/>
<path d="M606.94 263.538H657.639V438.619H713.074V493.096" stroke="white" stroke-width="4" stroke-miterlimit="10" stroke-linecap="round"/>
<g style="mix-blend-mode:multiply" opacity="0.5">
<path d="M695.677 78.2952H643.116C638.647 78.2952 635.029 74.6776 635.029 70.2088V36.8524C635.029 32.4368 638.647 28.766 643.116 28.766H695.677C700.146 28.766 703.764 32.4368 703.764 36.8524V70.2088C703.764 74.6776 700.146 78.2952 695.677 78.2952Z" fill="#A5A9E8"/>
</g>
<path d="M702.859 72.39H651.787C646.893 72.39 642.956 68.4 642.956 63.5056V31.7452C642.956 26.8508 646.893 22.8608 651.787 22.8608H702.859C707.754 22.8608 711.69 26.8508 711.69 31.7452V63.5056C711.69 68.4 707.754 72.39 702.859 72.39Z" fill="white"/>
<path d="M711.69 32.1176C711.69 27.0104 707.594 22.8608 702.487 22.8608H652.16C647.052 22.8608 642.956 27.0104 642.956 32.1176V32.5432H711.69V32.1176Z" fill="#A5A9E8"/>
<g style="mix-blend-mode:multiply" opacity="0.5">
<path d="M86.6436 121.972H34.082C29.6132 121.972 25.9956 118.355 25.9956 113.886V80.5296C25.9956 76.0608 29.6132 72.4432 34.082 72.4432H86.6436C91.1124 72.4432 94.73 76.0608 94.73 80.5296V113.886C94.73 118.355 91.1124 121.972 86.6436 121.972Z" fill="#A5A9E8"/>
</g>
<path d="M93.8255 116.067H42.7535C37.8591 116.067 33.8691 112.077 33.8691 107.183V75.4224C33.8691 70.528 37.8591 66.538 42.7535 66.538H93.8255C98.6667 66.538 102.657 70.528 102.657 75.4224V107.183C102.657 112.077 98.6667 116.067 93.8255 116.067Z" fill="white"/>
<path d="M102.657 75.7948C102.657 70.6876 98.5071 66.538 93.3999 66.538H43.1259C38.0187 66.538 33.8691 70.6876 33.8691 75.7948V76.2204H102.657V75.7948Z" fill="#A5A9E8"/>
<g style="mix-blend-mode:multiply" opacity="0.5">
<path d="M313.116 61.6968H220.123C215.654 61.6968 212.036 58.0792 212.036 53.6104V20.3072C212.036 15.8384 215.654 12.2208 220.123 12.2208H313.116C317.585 12.2208 321.203 15.8384 321.203 20.3072V53.6104C321.203 58.0792 317.585 61.6968 313.116 61.6968Z" fill="#A5A9E8"/>
</g>
<path d="M320.245 55.7916H228.794C223.9 55.7916 219.91 51.8548 219.91 46.9604V15.1468C219.91 10.2524 223.9 6.3156 228.794 6.3156H320.245C325.139 6.3156 329.129 10.2524 329.129 15.1468V46.9604C329.129 51.8548 325.139 55.7916 320.245 55.7916Z" fill="white"/>
<path d="M329.129 15.5192C329.129 10.412 324.98 6.3156 319.872 6.3156H229.166C224.059 6.3156 219.91 10.412 219.91 15.5192V15.998H329.129V15.5192Z" fill="#A5A9E8"/>
<g style="mix-blend-mode:multiply" opacity="0.5">
<path d="M734.034 393.026H681.473C677.004 393.026 673.386 389.409 673.386 384.94V351.584C673.386 347.168 677.004 343.55 681.473 343.55H734.034C738.503 343.55 742.121 347.168 742.121 351.584V384.94C742.121 389.409 738.503 393.026 734.034 393.026Z" fill="#A5A9E8"/>
</g>
<path d="M741.163 387.121H690.144C685.25 387.121 681.26 383.131 681.26 378.29V346.476C681.26 341.582 685.25 337.592 690.144 337.592H741.163C746.057 337.592 750.047 341.582 750.047 346.476V378.29C750.047 383.131 746.057 387.121 741.163 387.121Z" fill="white"/>
<path d="M750.047 346.849C750.047 341.742 745.898 337.592 740.791 337.592H690.517C685.409 337.592 681.26 341.742 681.26 346.849V347.274H750.047V346.849Z" fill="#A5A9E8"/>
<path d="M395.895 239.864C389.617 242.311 383.287 244.918 377.86 248.908C374.03 251.727 370.678 255.238 367.593 258.909C349.292 280.508 338.12 307.215 328.171 333.762C325.99 339.56 323.862 345.412 322.639 351.53C321.362 357.914 321.149 364.458 320.67 370.948C319.713 383.77 317.744 396.75 320.351 409.306C322.958 421.861 331.629 434.256 344.238 436.704C347.111 437.289 350.09 437.289 352.856 436.278C361.102 433.246 363.39 422.978 365.039 414.36C368.497 396.165 374.136 378.503 379.722 360.84C386.851 338.496 393.98 316.152 402.439 294.287C407.759 280.668 413.611 267.208 419.675 253.855C422.708 247.258 430.156 234.331 433.241 227.787C438.029 217.626 425.474 228.426 419.143 230.82C411.376 233.799 403.609 236.778 395.895 239.864Z" fill="#4488F0"/>
<g style="mix-blend-mode:multiply" opacity="0.5">
<path d="M395.895 239.864C389.617 242.311 383.287 244.918 377.86 248.908C374.03 251.727 370.678 255.238 367.593 258.909C349.292 280.508 338.12 307.215 328.171 333.762C325.99 339.56 323.862 345.412 322.639 351.53C321.362 357.914 321.149 364.458 320.67 370.948C319.713 383.77 317.744 396.75 320.351 409.306C322.958 421.861 331.629 434.256 344.238 436.704C347.111 437.289 350.09 437.289 352.856 436.278C361.102 433.246 363.39 422.978 365.039 414.36C368.497 396.165 374.136 378.503 379.722 360.84C386.851 338.496 393.98 316.152 402.439 294.287C407.759 280.668 413.611 267.208 419.675 253.855C422.708 247.258 430.156 234.331 433.241 227.787C438.029 217.626 425.474 228.426 419.143 230.82C411.376 233.799 403.609 236.778 395.895 239.864Z" fill="#4488F0"/>
</g>
<path d="M509.637 204.698C514.371 203.422 518.787 200.815 523.681 200.389C531.183 199.698 538.045 204.166 544.483 208.103C550.228 211.614 556.116 214.842 562.145 217.786C573.477 223.265 585.287 227.681 596.512 233.32C607.737 238.959 618.537 245.928 626.57 255.611C634.603 265.293 639.604 277.955 638.115 290.404C636.838 301.203 635.721 312.535 632.901 323.068C627.953 341.635 589.862 490.116 583.957 494C583.957 494 390.735 492.936 354.346 494.213C343.227 494.638 358.229 399.144 358.708 393.505C361.794 357.702 373.338 323.122 386.213 289.552C396.001 264.123 408.131 237.204 431.858 223.797C448.457 214.381 468.247 213.051 487.293 211.987C488.091 211.934 487.984 210.444 488.569 209.965C490.165 208.742 492.293 208.635 494.262 208.422C498.145 207.944 505.859 205.709 509.637 204.698Z" fill="#4488F0"/>
<g style="mix-blend-mode:multiply" opacity="0.5">
<path d="M522.351 443.832C466.172 438.672 408.876 443.832 353.335 435.693C351.313 453.728 349.717 473.358 350.462 485.275C366.475 488.84 383.499 487.563 399.832 484.85C419.409 481.604 438.774 476.55 458.618 475.965C487.293 475.061 515.435 483.573 544.057 485.169C559.272 486.02 574.541 484.796 589.437 481.764C592.15 473.465 595.608 461.974 599.279 448.886C574.062 450.536 547.834 446.173 522.351 443.832Z" fill="#4488F0"/>
</g>
<g style="mix-blend-mode:multiply" opacity="0.5">
<path d="M618.963 247.844C581.563 264.229 550.813 295.883 536.662 334.294C528.682 355.893 525.756 378.928 522.883 401.804C502.135 395.261 480.164 393.452 459.15 387.813C438.402 382.174 418.665 372.81 397.438 369.352C385.893 367.437 374.136 367.331 362.379 367.65C360.73 376.215 359.506 384.834 358.708 393.505C358.229 399.144 358.07 405.209 360.943 410.05C363.017 413.615 366.529 416.062 370.199 417.977C380.148 423.031 391.533 424.202 402.651 425.159C434.039 427.819 465.481 429.468 496.869 431.171C512.031 431.969 527.246 432.767 542.408 431.809C550.654 431.224 559.272 430.054 566.188 425.478C572.147 421.648 576.349 415.69 580.393 409.891C588.834 397.797 597.275 385.703 605.716 373.608C616.728 357.808 627.953 341.635 632.901 323.068C635.721 312.535 636.838 301.203 638.115 290.404C639.604 277.955 634.603 265.293 626.57 255.611C624.229 252.791 621.676 250.238 618.963 247.844Z" fill="#4488F0"/>
</g>
<g style="mix-blend-mode:multiply" opacity="0.5">
<path d="M446.328 238.321C447.073 246.567 448.297 254.866 451.542 262.527C454.787 270.134 460.267 277.05 467.768 280.615C475.163 284.126 483.834 284.073 491.868 282.424C495.698 281.626 499.475 280.508 502.986 278.753C506.232 277.104 509.158 274.976 511.977 272.635C519.319 266.676 525.916 259.76 531.129 251.887C533.364 248.482 535.332 244.971 537.3 241.406C539.428 237.576 541.556 233.728 543.684 229.862C546.77 224.223 549.962 218.371 551.398 212.146C549.058 210.834 546.752 209.486 544.482 208.103C538.045 204.166 531.182 199.698 523.681 200.389C518.787 200.815 514.371 203.422 509.636 204.698C505.859 205.709 498.145 207.944 494.262 208.422C492.293 208.635 490.165 208.742 488.569 209.965C487.984 210.444 488.09 211.934 487.292 211.987C473.673 212.732 459.628 213.636 446.648 217.573C445.477 224.382 445.743 231.405 446.328 238.321Z" fill="#4488F0"/>
</g>
<path d="M539.801 412.71C538.95 389.196 550.973 367.118 553.474 343.71C554.112 337.539 554.112 331.314 555.229 325.25C556.666 317.27 560.017 309.822 563.422 302.48C566.454 296.096 569.54 289.712 573.37 283.754C581.989 270.188 594.118 258.856 608.216 251.142C612.579 248.801 617.792 246.726 622.368 248.588C625.028 249.652 626.996 251.834 628.698 254.121C635.721 263.378 639.817 274.816 640.296 286.467C640.509 292.159 639.817 297.905 639.179 303.597C636.359 328.335 632.635 353.658 629.496 378.396C628.752 384.195 628.007 389.994 626.73 395.686C624.442 405.688 620.452 415.264 616.356 424.68C613.962 430.16 611.515 435.693 609.121 441.172C606.78 446.333 604.439 451.653 600.609 455.802C593.267 463.729 581.084 466.283 570.71 463.197C563.741 461.176 557.676 456.92 551.718 452.77C548.366 450.429 544.908 447.982 542.621 444.577C540.599 441.545 539.642 437.98 538.79 434.469C536.928 426.915 540.12 420.478 539.801 412.71Z" fill="#4488F0"/>
<g style="mix-blend-mode:multiply" opacity="0.5">
<path d="M569.221 419.839C576.881 421.967 584.755 425.585 588.852 432.448C591.831 437.448 592.363 443.46 592.682 449.312C592.895 452.823 592.522 457.239 589.277 458.569C587.202 459.42 584.861 458.622 582.84 457.771C573.051 453.674 563.422 449.099 555.069 442.556C551.133 439.523 547.515 436.012 544.376 432.128C542.301 429.468 536.503 422.659 536.928 419.041C537.62 412.498 564.379 418.456 569.221 419.839Z" fill="#4488F0"/>
</g>
<path d="M537.833 214.86C536.503 209.114 531.183 205.23 526.022 202.304C520.862 199.378 515.223 196.612 512.137 191.558C510.967 189.643 510.222 187.515 509.69 185.334C507.03 174.215 509.69 162.564 512.297 151.445C506.338 150.594 500.007 151.764 494.528 154.265C489.101 156.765 484.207 160.383 479.525 164.266C463.885 177.194 450.585 192.994 440.53 210.657C444.892 220.605 447.499 231.298 450.265 241.832C452.287 249.546 454.096 257.792 459.682 263.484C463.672 267.528 469.258 269.815 474.844 270.4C480.483 270.986 486.229 269.922 491.549 268.113C498.571 265.666 505.061 261.782 510.541 256.834C513.467 254.174 516.074 251.195 518.681 248.216C521.021 245.556 523.38 242.896 525.756 240.236C527.937 237.736 530.225 235.182 532.034 232.362C535.492 227.042 539.322 221.031 537.833 214.86Z" fill="#F0C49B"/>
<path d="M537.833 214.86C536.503 209.114 531.183 205.23 526.022 202.304C520.862 199.378 515.223 196.612 512.137 191.558C510.967 189.643 510.222 187.515 509.69 185.334C507.03 174.215 509.69 162.564 512.297 151.445C506.338 150.594 500.007 151.764 494.528 154.265C489.101 156.765 484.207 160.383 479.525 164.266C463.885 177.194 450.585 192.994 440.53 210.657C442.339 214.806 443.828 219.116 445.211 223.478C447.605 223.106 449.999 222.627 452.34 221.935C456.703 220.605 460.799 218.637 464.842 216.562C469.683 214.062 474.525 211.402 479.047 208.316C487.239 202.624 494.262 195.548 501.231 188.419C501.976 194.75 502.614 196.612 503.838 202.89C505.913 213.264 509.371 223.425 514.265 232.575C510.435 238.853 506.711 245.396 501.231 250.238C495.166 255.664 487.452 258.962 479.525 260.718C474.791 261.782 469.896 262.314 465.055 261.835C462.235 261.569 459.575 260.931 456.969 260.026C457.767 261.25 458.671 262.42 459.682 263.484C463.672 267.528 469.258 269.815 474.844 270.4C480.483 270.986 486.229 269.922 491.549 268.113C498.571 265.666 505.061 261.782 510.541 256.834C513.467 254.174 516.074 251.195 518.681 248.216C521.021 245.556 523.38 242.896 525.756 240.236C527.937 237.736 530.225 235.182 532.034 232.362C535.492 227.042 539.322 221.031 537.833 214.86Z" fill="#E0A988"/>
<path d="M467.768 231.352C464.736 233.214 460.533 233.054 457.66 230.979C456.011 229.809 454.787 228.053 453.777 226.298C454.415 229.224 454.681 231.937 456.969 233.852C458.671 235.342 461.065 236.033 463.299 235.714C465.534 235.395 466.545 233.267 467.768 231.352Z" fill="#E0A988"/>
<path d="M518.255 227.362C522.405 223.372 525.384 218.371 526.767 212.998C526.98 212.2 527.139 211.402 526.927 210.657C526.661 209.752 525.916 209.061 525.171 208.476C522.564 206.454 519.532 204.964 516.765 203.156C510.541 199.112 506.179 193.526 503.253 187.089C503.306 193.526 506.391 200.602 508.626 206.614C511.286 213.742 514.478 220.658 518.255 227.362Z" fill="#F0C49B"/>
<path d="M443.775 215.658C438.508 216.934 432.869 218.264 427.602 216.722C423.187 215.338 419.516 212.04 417.015 208.103C414.462 204.22 412.919 199.804 411.483 195.335C404.247 172.459 398.183 149.743 391.001 126.441C389.192 120.376 395.948 114.578 400.47 110.109C416.164 94.5744 436.221 81.5404 458.352 81.3808C463.938 81.3276 469.737 82.1788 474.525 85.1048C482.239 89.7864 486.016 98.8836 488.357 107.608C490.272 114.897 491.602 122.345 492.879 129.846C494.634 140.007 496.39 150.168 497.56 160.436C498.092 164.798 498.465 169.161 497.56 173.417C496.39 178.95 493.145 183.791 489.367 188.047C477.291 201.56 461.384 211.242 443.775 215.658Z" fill="#F0C49B"/>
<path d="M398.395 136.656C401.321 141.71 406.907 144.529 412.174 147.03C409.727 143.465 409.089 138.677 410.578 134.581C412.121 130.325 415.685 127.08 419.622 124.845C423.559 122.611 427.921 121.174 432.071 119.472C436.274 117.716 440.423 115.588 443.456 112.237C440.636 118.302 436.646 123.781 431.805 128.303C441.328 129.048 451.063 123.462 455.213 114.844C455.851 123.036 460.852 130.538 468.194 134.155C467.821 130.697 467.928 127.186 468.513 123.728C470.003 125.43 472.131 126.494 474.099 127.718C478.408 130.325 482.345 133.889 484.42 138.464C485.697 141.39 486.229 144.529 486.601 147.668C487.027 151.339 487.293 155.063 487.559 158.734C487.736 161.003 487.913 163.273 488.091 165.543C489.793 162.83 491.123 159.904 491.974 156.818C493.091 159.957 493.091 163.362 493.038 166.66C493.038 168.292 493.038 169.906 493.038 171.502C494.528 166.43 495.858 161.287 497.028 156.074C495.858 147.296 494.368 138.571 492.879 129.846C491.602 122.345 490.272 114.897 488.357 107.608C486.016 98.8836 482.239 89.7864 474.525 85.1048C469.737 82.1788 463.938 81.3276 458.352 81.3808C436.221 81.5404 416.164 94.5744 400.47 110.109C395.948 114.578 389.192 120.376 391.001 126.441C392.916 132.506 394.671 138.571 396.427 144.582C398.927 145.7 401.587 146.444 404.301 146.71C401.641 143.838 399.672 140.38 398.395 136.656Z" fill="#E0A988"/>
<path d="M426.059 174.055C421.112 175.917 415.632 176.236 410.525 175.066C410.525 175.101 410.525 175.119 410.525 175.119C410.631 175.438 410.897 175.704 411.11 175.97C413.522 178.205 415.916 180.421 418.292 182.62C421.112 180.014 423.612 177.247 426.059 174.055Z" fill="#E0A988"/>
<path d="M408.716 171.076C409.461 168.576 406.535 165.437 401.96 163.522C402.953 166.926 403.946 170.349 404.939 173.789C406.907 173.364 408.291 172.459 408.716 171.076Z" fill="#E89F87"/>
<path d="M407.546 145.806C412.972 154.052 414.196 164.905 410.738 174.108C410.578 174.428 410.472 174.8 410.525 175.119C410.631 175.438 410.898 175.704 411.11 175.97C413.983 178.595 416.838 181.237 419.675 183.897" stroke="#331810" stroke-width="3" stroke-linecap="round" stroke-linejoin="round"/>
<path d="M417.015 191.824C420.367 192.994 423.985 192.835 427.496 192.356C432.071 191.718 436.593 190.6 440.955 189.004" stroke="#331810" stroke-width="3" stroke-linecap="round" stroke-linejoin="round"/>
<path d="M418.984 188.738C420.899 188.26 422.974 188.26 424.889 188.792" stroke="#BA7A5D" stroke-width="2" stroke-linecap="round" stroke-linejoin="round"/>
<path d="M419.622 198.634C423.453 199.485 427.602 198.846 430.954 196.878" stroke="#BA7A5D" stroke-width="2" stroke-linecap="round" stroke-linejoin="round"/>
<path d="M432.975 131.389C435.901 128.942 440.743 129.101 443.562 131.761" stroke="#331810" stroke-width="3" stroke-linecap="round" stroke-linejoin="round"/>
<path d="M472.929 159.957C474.259 162.67 470.907 167.033 465.374 169.799C459.895 172.512 454.309 172.512 452.979 169.799C451.649 167.086 455.053 162.67 460.533 159.957C466.066 157.244 471.599 157.244 472.929 159.957Z" fill="#E89F87"/>
<path d="M441.647 146.764C441.913 150.168 441.009 153.041 439.519 153.201C438.083 153.307 436.646 150.647 436.38 147.242C436.061 143.784 437.019 140.912 438.455 140.805C439.892 140.646 441.328 143.306 441.647 146.764Z" fill="#331810"/>
<path d="M407.12 152.935C407.386 156.393 406.482 159.266 404.992 159.372C403.556 159.532 402.119 156.872 401.853 153.414C401.534 150.009 402.492 147.136 403.928 146.976C405.365 146.87 406.801 149.53 407.12 152.935Z" fill="#331810"/>
<path d="M398.768 141.869C399.672 141.231 400.736 141.018 401.8 140.805" stroke="#331810" stroke-width="3" stroke-linecap="round" stroke-linejoin="round"/>
<path d="M509.583 164.479C510.86 160.968 506.604 153.201 513.201 152.296C516.872 151.818 513.52 144.689 511.977 141.284C510.275 137.666 506.338 134.634 502.561 135.751C500.486 136.39 498.89 138.145 497.986 140.06C497.081 142.029 496.709 144.157 496.337 146.285C495.521 151.357 494.687 156.446 493.836 161.553C493.943 157.031 493.357 152.456 492.134 148.094C491.495 150.434 490.538 152.243 488.889 153.999C489.367 150.062 489.261 146.072 488.516 142.135C487.718 137.773 486.122 133.464 483.143 130.165C480.696 127.399 477.451 125.484 474.525 123.249C471.599 121.015 468.939 118.621 468.141 115.003C465.959 119.525 465.215 124.632 466.225 129.58C460.107 123.09 457.873 113.194 460.48 104.682C455.426 112.769 447.605 119.844 439.306 124.473C440.317 123.994 441.009 123.09 441.7 122.185C446.382 115.961 451.17 109.364 451.861 101.65C440.689 110.002 427.602 114.95 416.058 122.77C412.6 125.111 409.195 127.718 407.12 131.336C405.045 134.9 404.513 139.688 406.801 143.146C402.013 139.688 397.97 134.74 396.427 129.048C396.267 128.303 396.055 127.558 396.161 126.814C394.299 133.251 396.214 140.433 401.162 144.902C393.927 142.242 387.649 137.081 384.031 130.272C383.18 128.569 382.435 126.814 382.169 124.952C379.988 126.441 378.552 127.984 377.328 130.325C375.2 134.474 373.232 138.996 373.764 143.625C371.263 136.443 371.104 128.835 373.232 121.494C375.36 114.099 380.573 106.97 388.075 105.214C382.435 105.055 376.424 102.98 371.955 99.522C377.594 101.171 384.031 100.426 389.192 97.8196C384.297 96.4364 379.137 94.0424 375.041 91.01C382.595 89.8928 392.277 86.1688 397.97 81.1148C403.609 76.0076 406.429 69.6236 412.068 64.4632C419.356 57.8132 427.815 52.4932 436.965 48.7692C442.817 46.3752 448.935 44.6728 455.266 44.4068C470.003 43.8216 484.367 50.312 496.656 58.5048C512.829 69.3044 518.574 83.0832 535.013 89.5736C530.917 89.8928 527.033 89.414 523.203 88.0308C525.331 93.936 525.969 99.8944 526.501 106.172C526.873 110.854 526.82 115.642 528.257 120.11C529.693 124.579 533.045 128.782 537.673 129.58C534.96 130.112 532.779 129.686 530.119 128.942C527.831 128.303 525.331 127.558 524.001 125.59C523.203 138.89 517.351 153.733 509.583 164.479Z" fill="#512E21"/>
<path opacity="0.2" d="M518.361 100.373C514.903 95.266 510.807 90.5844 506.232 86.5412C513.893 100.214 516.021 116.918 511.977 132.08C512.19 130.591 511.977 129.048 511.765 127.612C510.488 118.94 508.839 110.322 505.913 102.076C502.987 93.8296 498.784 85.956 492.825 79.572C497.241 86.2752 499.209 94.202 501.125 101.969C502.987 109.79 504.902 117.823 503.731 125.75C502.242 115.642 498.731 105.853 493.464 97.128C496.656 106.332 497.879 116.12 498.199 125.856C498.305 130.165 498.305 134.634 500.061 138.624C494.687 128.676 490.697 117.77 490.059 106.491C488.995 114.897 489.899 123.515 492.559 131.548C490.006 120.323 480.696 111.918 475.908 101.437C474.099 97.394 472.929 93.0848 472.556 88.6692C478.142 96.3832 483.835 104.31 486.654 113.46C486.282 105.8 485.218 98.2452 483.462 90.7972C488.889 97.4472 492.772 105.374 494.741 113.726C492.719 104.257 490.644 94.5744 485.324 86.488C490.059 89.7864 494.9 93.2444 497.72 98.2452C496.478 95.3015 495.237 92.34 493.996 89.3608C491.655 83.7216 489.208 77.9228 485.165 73.3476C490.059 75.9012 495.007 78.508 498.943 82.2852C503.359 86.5412 506.285 92.0208 508.36 97.7664C504.955 90.478 501.55 83.1896 496.922 76.646C501.763 79.7316 506.285 83.296 510.488 87.2328C507.828 84.7324 505.593 80.1572 503.519 77.0716C510.009 83.7748 515.116 91.6484 518.361 100.373Z" fill="white"/>
<g style="mix-blend-mode:multiply" opacity="0.5">
<path d="M391.107 134.208C389.617 131.868 388.181 129.42 387.223 126.76C385.734 122.77 385.468 118.302 386.425 114.099C382.382 118.514 378.711 123.356 376.264 128.782C374.455 132.772 373.338 137.134 373.072 141.444C373.285 142.188 373.498 142.88 373.764 143.625C373.232 138.996 375.2 134.474 377.328 130.325C378.552 127.984 379.988 126.441 382.169 124.952C382.435 126.814 383.18 128.569 384.031 130.272C387.596 136.975 393.767 142.082 400.843 144.795C396.906 142.242 393.714 138.252 391.107 134.208Z" fill="#512E21"/>
<path d="M509.583 76.5928C516.819 86.2752 522.618 97.0216 526.661 108.406C526.59 107.662 526.537 106.917 526.501 106.172C525.969 99.8944 525.331 93.936 523.203 88.0308C527.033 89.414 530.917 89.8928 535.013 89.5736C534.978 89.5736 534.96 89.5736 534.96 89.5736C530.651 88.9884 526.448 87.4456 522.617 85.3708C517.989 82.9236 513.786 79.7316 509.583 76.5928Z" fill="#512E21"/>
<path d="M383.18 102.235C379.669 102.182 376.105 101.384 373.019 99.788C372.647 99.6816 372.327 99.6284 371.955 99.522C376.158 102.82 381.797 104.789 387.17 105.161C392.118 103.725 396.853 101.597 401.162 98.7772C395.31 100.586 389.298 102.395 383.18 102.235Z" fill="#512E21"/>
<path d="M407.386 88.6692C397.544 93.7764 385.628 94.5744 375.2 91.01C375.165 91.01 375.112 91.01 375.041 91.01C379.137 94.0424 384.298 96.4364 389.192 97.8196C388.873 97.9792 388.5 98.1388 388.128 98.2984C391.746 97.7132 395.15 96.2236 398.342 94.5212C401.481 92.7656 404.514 90.8504 407.386 88.6692Z" fill="#512E21"/>
<path d="M485.324 129.261C483.409 127.08 481.707 124.686 479.685 122.558C477.397 120.11 474.684 118.036 472.397 115.535C470.162 112.982 468.3 109.896 468.247 106.491C464.629 113.514 463.938 121.972 466.225 129.527C465.215 124.632 465.959 119.525 468.141 115.003C468.939 118.621 471.599 121.015 474.525 123.249C477.451 125.484 480.696 127.399 483.143 130.165C486.122 133.464 487.718 137.773 488.516 142.135C489.261 146.072 489.367 150.062 488.889 153.999C490.538 152.243 491.495 150.434 492.134 148.094C493.357 152.456 493.943 157.031 493.836 161.553C494.687 156.446 495.521 151.357 496.337 146.285C496.709 144.157 497.081 142.029 497.986 140.06C498.057 139.883 498.145 139.706 498.252 139.528C493.357 136.922 488.942 133.464 485.324 129.261Z" fill="#512E21"/>
<path d="M528.469 124.26C524.267 119.525 521.394 113.833 518.521 108.194C519 119.791 516.819 131.442 512.35 142.082C513.946 145.7 516.606 151.871 513.201 152.296C506.604 153.201 510.86 160.968 509.583 164.479C517.351 153.733 523.203 138.89 524.001 125.59C525.331 127.558 527.831 128.303 530.119 128.942C532.779 129.686 534.96 130.112 537.673 129.58C537.141 129.509 536.609 129.367 536.077 129.154C535.864 129.154 535.651 129.101 535.385 129.048C532.619 128.356 530.385 126.388 528.469 124.26Z" fill="#512E21"/>
<path d="M432.231 107.502C428.613 109.204 425.049 110.995 421.537 112.875C417.015 115.269 412.547 117.876 408.876 121.44C405.205 124.952 403.024 130.272 402.385 135.326C399.247 129.846 398.289 123.09 399.779 116.918C397.863 120.483 396.001 124.26 395.842 128.197C395.913 127.736 396.019 127.275 396.161 126.814C396.055 127.558 396.267 128.303 396.427 129.048C397.97 134.74 402.013 139.688 406.801 143.146C404.513 139.688 405.045 134.9 407.12 131.336C409.195 127.718 412.6 125.111 416.058 122.77C427.549 114.95 440.583 110.002 451.755 101.703C453.085 98.8304 454.043 95.8512 454.362 92.7124C449.148 100.001 440.37 103.672 432.231 107.502Z" fill="#512E21"/>
<path d="M450.585 113.514C447.818 116.812 444.733 119.898 441.381 122.611C440.796 123.356 440.158 124.1 439.306 124.473C447.286 120.057 454.788 113.407 459.842 105.693C460.693 102.129 461.863 98.6708 463.246 95.3192C459.31 101.597 455.373 107.874 450.585 113.514Z" fill="#512E21"/>
</g>
<g style="mix-blend-mode:multiply" opacity="0.5">
<path d="M455.692 98.7772C456.277 94.9468 458.458 91.4888 460.799 88.4032C469.151 77.3908 480.536 68.7192 493.357 63.5588" stroke="#512E21" stroke-width="2" stroke-linecap="round" stroke-linejoin="round"/>
</g>
<path opacity="0.2" d="M409.727 110.694C414.675 106.225 420.633 102.927 425.208 98.1388C419.569 101.437 413.859 104.665 408.078 107.821C404.62 109.736 401.055 111.598 398.076 114.258C395.15 116.972 392.809 120.536 392.49 124.526C391.107 121.334 391.905 117.61 393.714 114.684C395.523 111.758 398.289 109.577 401.109 107.608C407.918 102.98 415.366 99.3624 422.442 95.1596C429.517 91.01 436.38 86.1156 441.381 79.6252C436.54 87.7116 430.688 95.2128 423.985 101.81C419.622 106.066 414.994 110.002 410.578 114.152C408.184 116.493 405.843 118.887 404.088 121.76C402.385 124.632 401.375 128.037 401.8 131.336C400.843 128.037 401.481 123.143 402.758 120.057C404.247 116.44 406.854 113.248 409.727 110.694Z" fill="white"/>
<path opacity="0.2" d="M429.464 68.932C423.559 81.8596 412.227 92.1804 398.768 96.7556C406.482 96.5428 413.823 93.67 419.143 88.084C423.985 82.9768 427.389 75.6352 429.464 68.932Z" fill="white"/>
<path opacity="0.2" d="M438.881 55.632C432.071 56.7492 426.059 60.686 420.899 65.2612C415.685 69.7832 411.163 75.05 406.003 79.6252C400.843 84.2004 394.831 88.1372 388.075 89.3076C395.736 87.818 403.449 86.6476 409.727 82.0192C413.877 78.9336 416.962 74.7308 420.473 70.9536C425.793 65.1016 431.965 59.5156 438.881 55.632Z" fill="white"/>
<path opacity="0.2" d="M440.264 66.7508C444.573 61.3776 449.893 56.5896 456.33 54.2488C462.821 51.908 470.588 52.3868 475.961 56.696C469.364 55.6852 462.448 57.1216 456.809 60.686C463.14 58.292 470.481 58.7708 476.44 62.016C466.279 61.1116 455.532 65.8464 450.212 74.5712C452.606 68.4 457.926 63.4524 464.257 61.484C457.607 62.1224 451.117 64.676 445.797 68.7192C449.361 62.282 456.011 58.2388 462.501 54.7808C454.521 57.2812 447.286 61.9096 441.7 68.0808C435.103 75.3692 430.422 84.9984 421.591 89.3608C425.208 87.552 429.039 82.8172 431.273 79.5188C434.146 75.1564 436.965 70.794 440.264 66.7508Z" fill="white"/>
<path opacity="0.2" d="M444.147 93.138C448.137 88.882 451.489 84.0408 455.426 79.6784C459.363 75.316 464.151 71.4324 469.79 69.9428C464.257 73.8796 460.427 79.7848 456.171 85.1048C446.063 97.5536 432.603 107.236 417.601 112.822C419.675 112.024 421.378 110.056 423.24 108.832C425.74 107.236 428.241 105.746 430.688 104.097C435.529 100.905 440.157 97.3408 444.147 93.138Z" fill="white"/>
<path d="M447.233 151.179C447.233 151.179 491.602 135.592 501.178 131.07C510.807 126.601 513.201 134.421 513.201 134.421C513.201 134.421 518.734 138.624 517.138 130.697C516.34 126.707 513.573 125.058 511.02 124.366C508.626 123.728 506.125 123.994 503.838 124.845L445.85 146.976C445.158 148.626 445.743 150.222 447.233 151.179Z" fill="#666EB2"/>
<g style="mix-blend-mode:multiply" opacity="0.5">
<path d="M515.382 131.229C514.265 128.995 511.871 127.558 509.371 127.133C506.87 126.654 504.317 127.08 501.923 127.718C498.465 128.622 495.113 129.952 491.815 131.282C476.564 137.525 461.296 143.749 446.01 149.956C446.293 150.417 446.701 150.825 447.233 151.179C447.233 151.179 491.602 135.592 501.178 131.07C510.807 126.601 513.201 134.421 513.201 134.421C513.201 134.421 514.957 135.751 516.234 135.485C516.234 133.996 516.021 132.559 515.382 131.229Z" fill="#666EB2"/>
</g>
<path fill-rule="evenodd" clip-rule="evenodd" d="M448.563 164.373C447.978 165.809 446.595 166.873 445.105 167.458C443.775 167.937 442.339 168.097 440.955 168.15C438.579 168.256 436.203 168.221 433.827 168.044C430.954 167.831 427.975 167.405 425.634 165.756C423.665 164.426 422.335 162.404 421.112 160.383C419.888 158.361 418.665 156.286 416.856 154.797C415.047 153.254 413.611 152.403 411.376 153.148C411.749 155.701 412.174 158.734 412.227 161.447C412.281 163.415 412.227 165.596 411.163 167.246C409.993 169.001 407.918 169.906 405.95 170.65C402.811 171.821 393.448 172.991 390.522 168.31C388.819 165.596 387.277 162.777 385.893 159.904C384.723 157.457 383.872 154.797 383.18 152.137C383.021 151.552 382.914 150.913 383.074 150.328C383.446 148.785 385.415 148.306 387.064 148.147C393.714 147.455 400.789 147.03 407.493 146.444C408.716 148.253 410.153 150.168 412.653 150.062C413.398 150.009 414.089 149.796 414.728 149.424C415.473 148.945 416.111 148.306 416.59 147.508C417.335 146.338 418.611 145.54 419.995 145.274C422.708 144.742 425.581 144.689 428.347 144.636C431.326 144.636 434.252 144.529 437.178 144.529C447.18 144.529 446.222 147.455 446.541 147.774C447.073 148.36 447.712 148.892 447.765 149.69C447.978 153.414 448.776 157.031 448.989 160.755C449.042 161.979 449.042 163.256 448.563 164.373ZM408.291 153.52C407.812 151.924 407.12 150.168 405.631 149.424C404.779 148.998 403.769 148.945 402.811 148.945C400.08 148.909 397.331 149.016 394.565 149.264C392.49 149.477 388.447 149.37 386.745 150.7C385.149 151.924 386.851 154.956 387.383 156.393C388.341 159.017 389.458 161.571 390.735 164.054C391.213 165.011 391.692 166.022 392.543 166.714C393.607 167.671 395.044 168.044 396.427 168.256C400.204 168.842 404.088 168.576 407.705 167.405C408.237 167.246 408.769 167.033 409.089 166.66C409.355 166.288 409.461 165.862 409.514 165.49C410.259 161.5 409.461 157.404 408.291 153.52ZM446.329 159.266C445.956 156.818 445.371 154.424 444.573 152.084C444.254 151.179 443.935 150.222 443.243 149.583C442.232 148.626 440.689 148.466 439.359 148.36C437.302 148.182 435.263 148.005 433.241 147.828C428.932 147.455 424.41 147.136 420.58 148.998C417.813 150.381 425.581 161.766 427.921 163.468C430.049 164.958 432.656 165.65 435.263 165.809C437.923 165.916 440.53 165.543 443.083 165.118C443.722 165.011 444.36 164.905 444.945 164.586C446.595 163.575 446.648 161.181 446.329 159.266Z" fill="#666EB2"/>
<path opacity="0.5" d="M444.573 152.084C444.254 151.179 443.935 150.222 443.243 149.583C442.232 148.626 440.689 148.466 439.359 148.36C437.302 148.182 435.263 148.005 433.241 147.828C428.932 147.455 424.41 147.136 420.58 148.998C417.813 150.381 425.581 161.766 427.921 163.468C430.049 164.958 432.656 165.65 435.263 165.809C437.923 165.916 440.53 165.543 443.083 165.118C443.722 165.011 444.36 164.905 444.945 164.586C446.595 163.575 446.648 161.181 446.329 159.266C445.956 156.818 445.371 154.424 444.573 152.084Z" fill="white"/>
<path opacity="0.5" d="M405.631 149.424C404.779 148.998 403.768 148.945 402.811 148.945C400.08 148.909 397.331 149.016 394.565 149.264C392.49 149.477 388.447 149.37 386.745 150.7C385.149 151.924 386.851 154.956 387.383 156.393C388.34 159.017 389.458 161.571 390.735 164.054C391.213 165.011 391.692 166.022 392.543 166.714C393.607 167.671 395.044 168.044 396.427 168.256C400.204 168.842 404.088 168.576 407.705 167.405C408.237 167.246 408.769 167.033 409.089 166.66C409.355 166.288 409.461 165.862 409.514 165.49C410.259 161.5 409.461 157.404 408.291 153.52C407.812 151.924 407.12 150.168 405.631 149.424Z" fill="white"/>
<path opacity="0.5" d="M395.523 155.861C393.767 153.786 392.065 151.658 390.309 149.583C388.979 149.743 387.702 150.062 386.851 150.594C391.692 156.712 396.64 162.777 401.907 168.469C403.662 168.363 405.418 168.044 407.12 167.565C402.971 164 399.087 160.064 395.523 155.861Z" fill="white"/>
<path opacity="0.5" d="M409.78 160.968C409.621 158.468 409.036 155.914 408.291 153.52C407.812 151.924 407.12 150.168 405.631 149.424C404.78 148.998 403.769 148.945 402.811 148.945C401.162 148.892 399.459 148.945 397.757 149.051C401.658 153.13 405.666 157.102 409.78 160.968Z" fill="white"/>
<path opacity="0.5" d="M422.442 148.306C426.006 154.424 430.049 160.276 434.571 165.756C434.82 165.756 435.05 165.774 435.263 165.809C436.806 165.862 438.296 165.756 439.838 165.596C434.997 159.957 430.794 153.839 426.804 147.562C425.315 147.615 423.825 147.881 422.442 148.306Z" fill="white"/>
<path opacity="0.5" d="M446.329 159.266C446.151 158.237 445.956 157.191 445.743 156.127C443.545 153.644 441.47 151.055 439.519 148.36C439.448 148.36 439.395 148.36 439.359 148.36C437.48 148.182 435.618 148.023 433.773 147.881C437.391 153.467 441.434 158.734 445.85 163.681C446.595 162.511 446.541 160.755 446.329 159.266Z" fill="white"/>
<g style="mix-blend-mode:multiply" opacity="0.5">
<path fill-rule="evenodd" clip-rule="evenodd" d="M409.408 152.935C410.738 157.244 411.589 161.766 410.791 166.182C410.685 166.66 410.578 167.139 410.312 167.512C409.94 167.937 409.355 168.15 408.769 168.363C404.779 169.64 400.417 169.959 396.267 169.267C394.725 169.054 393.129 168.629 391.958 167.618C391.054 166.82 390.469 165.703 389.937 164.639C388.553 161.872 387.312 159.035 386.213 156.127C385.681 154.531 383.765 151.179 385.521 149.849C387.383 148.36 391.905 148.519 394.246 148.253C397.261 147.934 400.293 147.81 403.343 147.881C404.407 147.881 405.524 147.934 406.482 148.413C408.131 149.264 408.876 151.179 409.408 152.935ZM408.291 153.52C407.812 151.924 407.12 150.168 405.631 149.424C404.779 148.998 403.769 148.945 402.811 148.945C400.08 148.909 397.331 149.016 394.565 149.264C392.49 149.477 388.447 149.37 386.745 150.7C385.149 151.924 386.851 154.956 387.383 156.393C388.341 159.017 389.458 161.571 390.735 164.054C391.213 165.011 391.692 166.022 392.543 166.714C393.607 167.671 395.044 168.044 396.427 168.256C400.204 168.842 404.088 168.576 407.705 167.405C408.237 167.246 408.769 167.033 409.089 166.66C409.355 166.288 409.461 165.862 409.514 165.49C410.259 161.5 409.461 157.404 408.291 153.52Z" fill="#666EB2"/>
<path opacity="0.3" fill-rule="evenodd" clip-rule="evenodd" d="M409.408 152.935C410.738 157.244 411.589 161.766 410.791 166.182C410.685 166.66 410.578 167.139 410.312 167.512C409.94 167.937 409.355 168.15 408.769 168.363C404.779 169.64 400.417 169.959 396.267 169.267C394.725 169.054 393.129 168.629 391.958 167.618C391.054 166.82 390.469 165.703 389.937 164.639C388.553 161.872 387.312 159.035 386.213 156.127C385.681 154.531 383.765 151.179 385.521 149.849C387.383 148.36 391.905 148.519 394.246 148.253C397.261 147.934 400.293 147.81 403.343 147.881C404.407 147.881 405.524 147.934 406.482 148.413C408.131 149.264 408.876 151.179 409.408 152.935ZM408.291 153.52C407.812 151.924 407.12 150.168 405.631 149.424C404.779 148.998 403.769 148.945 402.811 148.945C400.08 148.909 397.331 149.016 394.565 149.264C392.49 149.477 388.447 149.37 386.745 150.7C385.149 151.924 386.851 154.956 387.383 156.393C388.341 159.017 389.458 161.571 390.735 164.054C391.213 165.011 391.692 166.022 392.543 166.714C393.607 167.671 395.044 168.044 396.427 168.256C400.204 168.842 404.088 168.576 407.705 167.405C408.237 167.246 408.769 167.033 409.089 166.66C409.355 166.288 409.461 165.862 409.514 165.49C410.259 161.5 409.461 157.404 408.291 153.52Z" fill="#666EB2"/>
</g>
<g style="mix-blend-mode:multiply" opacity="0.5">
<path fill-rule="evenodd" clip-rule="evenodd" d="M448.297 159.691C448.616 161.872 448.616 164.639 446.648 165.756C446.009 166.128 445.264 166.288 444.573 166.394C441.594 166.873 438.615 167.299 435.582 167.139C432.603 166.98 429.57 166.235 427.123 164.479C424.41 162.564 415.473 149.477 418.718 147.881C423.133 145.7 428.294 146.072 433.241 146.498C435.582 146.71 437.923 146.923 440.264 147.136C441.807 147.242 443.562 147.455 444.679 148.519C445.477 149.264 445.903 150.328 446.275 151.392C447.18 154.105 447.871 156.872 448.297 159.691ZM446.329 159.266C445.956 156.818 445.371 154.424 444.573 152.084C444.254 151.179 443.934 150.222 443.243 149.583C442.232 148.626 440.689 148.466 439.359 148.36C437.302 148.182 435.263 148.005 433.241 147.828C428.932 147.455 424.41 147.136 420.58 148.998C417.813 150.381 425.58 161.766 427.921 163.468C430.049 164.958 432.656 165.65 435.263 165.809C437.923 165.916 440.53 165.543 443.083 165.118C443.722 165.011 444.36 164.905 444.945 164.586C446.594 163.575 446.648 161.181 446.329 159.266Z" fill="#666EB2"/>
</g>
<g style="mix-blend-mode:multiply" opacity="0.5">
<path fill-rule="evenodd" clip-rule="evenodd" d="M448.297 159.691C448.616 161.872 448.616 164.639 446.648 165.756C446.009 166.128 445.264 166.288 444.573 166.394C441.594 166.873 438.615 167.299 435.582 167.139C432.603 166.98 429.57 166.235 427.123 164.479C424.41 162.564 415.473 149.477 418.718 147.881C423.133 145.7 428.294 146.072 433.241 146.498C435.582 146.71 437.923 146.923 440.264 147.136C441.807 147.242 443.562 147.455 444.679 148.519C445.477 149.264 445.903 150.328 446.275 151.392C447.18 154.105 447.871 156.872 448.297 159.691ZM446.329 159.266C445.956 156.818 445.371 154.424 444.573 152.084C444.254 151.179 443.934 150.222 443.243 149.583C442.232 148.626 440.689 148.466 439.359 148.36C437.302 148.182 435.263 148.005 433.241 147.828C428.932 147.455 424.41 147.136 420.58 148.998C417.813 150.381 425.58 161.766 427.921 163.468C430.049 164.958 432.656 165.65 435.263 165.809C437.923 165.916 440.53 165.543 443.083 165.118C443.722 165.011 444.36 164.905 444.945 164.586C446.594 163.575 446.648 161.181 446.329 159.266Z" fill="white"/>
</g>
<path d="M495.592 139.954C495.858 137.773 496.283 135.485 497.667 133.783C498.571 132.612 499.848 131.761 501.178 131.07C503.678 129.793 506.498 128.888 509.211 129.474C513.095 130.272 515.808 133.889 516.712 137.72C517.563 141.55 516.978 145.54 516.287 149.424C515.861 151.711 515.435 154.052 514.212 156.074C512.563 158.734 509.743 160.489 506.657 161.074C504.689 161.5 500.805 161.819 498.997 160.702C497.294 159.638 497.188 157.989 496.709 156.074C495.432 150.807 495.06 145.327 495.592 139.954Z" fill="#F0C49B"/>
<path d="M499.316 146.604C498.837 143.784 498.571 140.858 499.529 138.198C500.433 135.538 502.934 133.198 505.806 133.357C508.52 133.517 510.701 135.858 511.871 138.305C512.456 139.528 512.829 140.752 513.042 142.082C513.467 144.795 512.988 147.615 512.19 150.328C511.446 152.722 510.328 155.169 508.254 156.552C501.391 161.128 500.008 150.807 499.316 146.604Z" fill="#E0A988"/>
<path opacity="0.5" d="M205.333 176.13H390.735L417.441 340.465L238.955 324.398L205.333 176.13Z" fill="#FAFDF8"/>
<path d="M218.473 182.461C218.473 183.844 217.356 184.961 215.973 184.961C214.59 184.961 213.472 183.844 213.472 182.461C213.472 181.078 214.59 179.96 215.973 179.96C217.356 179.96 218.473 181.078 218.473 182.461Z" fill="white"/>
<path d="M230.816 182.461C230.816 183.844 229.698 184.961 228.368 184.961C226.985 184.961 225.868 183.844 225.868 182.461C225.868 181.078 226.985 179.96 228.368 179.96C229.698 179.96 230.816 181.078 230.816 182.461Z" fill="white"/>
<path d="M244.116 182.461C244.116 183.844 242.998 184.961 241.668 184.961C240.285 184.961 239.168 183.844 239.168 182.461C239.168 181.078 240.285 179.96 241.668 179.96C242.998 179.96 244.116 181.078 244.116 182.461Z" fill="white"/>
<path d="M358.442 479.742V494.213H504.689V431.49L358.442 479.742Z" fill="#666EB2"/>
<g style="mix-blend-mode:multiply" opacity="0.3">
<path d="M358.442 479.742V494.213H504.689V431.49L358.442 479.742Z" fill="#666EB2"/>
</g>
<g style="mix-blend-mode:multiply" opacity="0.3">
<path d="M504.689 431.49L359.719 479.317C359.719 479.671 359.737 480.026 359.772 480.381C381.478 477.934 403.29 476.231 425.102 475.274C432.231 475.008 439.572 474.795 446.329 477.189C449.414 478.306 452.34 480.008 455.585 480.7C462.235 482.243 469.63 479.689 475.855 482.456C482.983 485.648 485.697 480.54 486.175 488.308C486.282 490.276 486.282 492.244 486.229 494.213H504.689V431.49Z" fill="#666EB2"/>
</g>
<path d="M32.8052 439.683C32.8052 440.108 32.8052 494.213 32.8052 494.213H358.442V467.932L32.8052 439.683Z" fill="#666EB2"/>
<g style="mix-blend-mode:multiply" opacity="0.5">
<path d="M32.8052 439.683C32.8052 440.108 32.8052 494.213 32.8052 494.213H358.442V467.932L32.8052 439.683Z" fill="#666EB2"/>
</g>
<path d="M0.512695 425.585L256.671 385.259L548.898 431.49L358.442 465.91L0.512695 425.585Z" fill="#666EB2"/>
<g style="mix-blend-mode:multiply" opacity="0.5">
<path d="M274.546 388.079C277.791 394.09 280.504 400.315 280.983 407.071C281.196 409.731 281.089 412.657 282.526 414.892C284.015 417.179 287.846 418.03 289.282 415.743C289.868 419.733 293.751 422.659 297.741 423.297C301.731 423.936 305.828 422.765 309.605 421.276C315.723 418.935 321.522 415.743 326.895 411.912C329.023 417.764 336.683 420.424 342.535 418.084C345.887 416.754 348.707 414.147 352.218 413.349C356.953 412.232 361.688 414.626 366.156 416.488C376.105 420.69 386.904 422.765 397.704 422.606C400.949 422.552 404.247 422.286 407.333 423.297C409.94 424.202 412.228 425.957 414.409 427.66C422.442 433.884 430.581 440.268 436.327 448.674C436.965 449.596 437.568 450.536 438.136 451.493L548.898 431.49L274.546 388.079Z" fill="#666EB2"/>
</g>
<path d="M358.442 479.742V465.91L0.512695 425.585V439.683L358.442 479.742Z" fill="#666EB2"/>
<path d="M358.442 465.91L548.898 431.49V444.896L358.442 479.742V465.91Z" fill="#666EB2"/>
<path opacity="0.5" d="M358.442 479.742V465.91L0.512695 425.585V439.683L358.442 479.742Z" fill="white"/>
<path opacity="0.2" d="M358.442 465.91L548.898 431.49V444.896L358.442 479.742V465.91Z" fill="white"/>
<g style="mix-blend-mode:multiply" opacity="0.5">
<path d="M69.2471 423.191L311.679 453.355L440.689 428.351L220.229 387.494L69.2471 423.191Z" fill="#666EB2"/>
</g>
<path d="M304.285 429.788L421.91 413.828L414.196 419.839C407.865 424.787 400.364 428.032 392.437 429.202L304.551 442.236" fill="#717171"/>
<path d="M421.91 413.828L232.944 392.335L107.179 412.764L304.285 429.788L421.91 413.828Z" fill="#434343"/>
<g style="mix-blend-mode:multiply" opacity="0.5">
<path d="M421.91 413.828L232.944 392.335L107.179 412.764L304.285 429.788L421.91 413.828Z" fill="#434343"/>
</g>
<path d="M304.231 425.585L390.043 412.764L233.316 398.08L155.112 409.412L304.231 425.585Z" fill="#434343"/>
<path opacity="0.5" d="M304.231 425.585L390.043 412.764L233.316 398.08L155.112 409.412L304.231 425.585Z" fill="white"/>
<path d="M288.804 370.15C294.017 368.448 299.656 368.076 304.657 365.841C306.36 365.096 307.956 364.139 309.818 363.873C312.797 363.447 315.67 364.937 318.223 366.533C322.479 369.14 326.735 372.544 327.906 377.386C328.916 381.748 327.214 386.323 324.82 390.1C323.543 392.069 322.107 393.931 320.351 395.527C317.638 397.974 314.286 399.676 310.935 401.272C307.317 402.975 303.434 404.677 299.444 404.039C293.911 403.188 290.027 398.08 287.314 393.186C285.026 389.036 281.834 383.929 281.036 379.194C280.238 374.566 284.973 371.374 288.804 370.15Z" fill="#F0C49B"/>
<path d="M323.809 370.736C323.242 370.877 322.674 371.055 322.107 371.268C319.128 372.438 316.574 374.513 314.127 376.588C305.934 383.255 297.759 389.941 289.602 396.644C289.566 396.679 289.531 396.697 289.495 396.697C292.049 400.315 295.241 403.4 299.444 404.039C303.434 404.677 307.317 402.975 310.935 401.272C314.286 399.676 317.638 397.974 320.351 395.527C322.107 393.931 323.543 392.069 324.82 390.1C327.214 386.323 328.916 381.748 327.906 377.386C327.267 374.779 325.724 372.598 323.809 370.736Z" fill="#E0A988"/>
<path d="M310.881 373.928C313.08 381.943 315.066 390.012 316.84 398.134C318.117 397.336 319.287 396.484 320.351 395.527C320.457 395.42 320.546 395.332 320.617 395.261C316.893 388.611 314.393 381.322 313.382 373.768C313.009 374.726 311.573 374.672 310.881 373.928Z" fill="#E0A988"/>
<path d="M295.028 380.046C298.858 387.6 301.784 395.633 303.753 403.879C305.189 403.613 306.572 403.134 307.955 402.602C303.912 394.835 301.891 386.057 299.975 377.439C299.443 379.407 297.049 380.418 295.028 380.046Z" fill="#E0A988"/>
<path d="M286.303 371.214C283.217 372.81 280.451 375.577 281.036 379.194C281.834 383.929 285.026 389.036 287.314 393.186C289.867 397.761 293.432 402.549 298.433 403.826C296.677 394.622 293.911 385.578 290.133 377.013C289.229 374.938 288.005 372.651 286.303 371.214Z" fill="#E0A988"/>
<path d="M292.634 394.09C293.113 395.367 293.645 396.804 293.113 398.134C292.421 399.836 290.08 400.474 288.325 399.889C286.516 399.251 285.186 397.814 283.962 396.378C279.6 391.164 275.77 385.472 273.429 379.088C272.95 377.811 272.524 376.428 272.578 375.045C272.631 373.608 273.216 372.172 274.44 371.48C278.057 369.193 283.75 374.566 285.878 377.279C287.42 379.248 288.112 382.12 288.963 384.461C290.204 387.653 291.428 390.863 292.634 394.09Z" fill="#F0C49B"/>
<path d="M291.091 393.08C290.346 392.122 289.495 391.164 288.325 390.792C287.208 390.42 285.665 390.845 285.292 392.016C285.186 392.494 285.239 393.026 285.292 393.505C285.612 395.474 286.197 397.389 286.942 399.198C287.367 399.481 287.828 399.712 288.325 399.889C290.08 400.474 292.421 399.836 293.113 398.134C293.379 397.389 293.379 396.644 293.219 395.899C292.545 394.942 291.836 394.002 291.091 393.08Z" fill="#FAFDF8"/>
<g style="mix-blend-mode:multiply" opacity="0.5">
<path opacity="0.5" d="M421.91 413.828L278.908 397.602C279.972 400.634 280.717 403.773 280.983 407.071C281.196 409.731 281.089 412.657 282.526 414.892C284.015 417.179 287.846 418.03 289.282 415.743C289.867 419.733 293.751 422.659 297.741 423.297C301.731 423.936 305.827 422.765 309.605 421.276C315.723 418.935 321.521 415.743 326.895 411.912C329.023 417.764 336.683 420.424 342.535 418.084C345.887 416.754 348.707 414.147 352.218 413.349C356.953 412.232 361.687 414.626 366.156 416.488C376.105 420.69 386.904 422.765 397.704 422.606C400.949 422.552 404.247 422.286 407.333 423.297C407.688 423.439 408.042 423.581 408.397 423.723C410.419 422.606 412.334 421.329 414.196 419.839L421.91 413.828Z" fill="#434343"/>
</g>
<path d="M451.542 453.355C450.319 451.174 449.84 448.674 449.467 446.226C447.339 431.65 449.095 416.541 454.521 402.709C455.16 401.06 456.064 399.251 457.82 398.825C460.054 398.24 462.129 400.102 463.459 401.911C473.301 415.424 473.514 433.831 466.704 448.886C463.938 455.058 456.543 462.08 451.542 453.355Z" fill="#4488F0"/>
<g style="mix-blend-mode:multiply">
<path d="M451.542 453.355C450.319 451.174 449.84 448.674 449.467 446.226C447.339 431.65 449.095 416.541 454.521 402.709C455.16 401.06 456.064 399.251 457.82 398.825C460.054 398.24 462.129 400.102 463.459 401.911C473.301 415.424 473.514 433.831 466.704 448.886C463.938 455.058 456.543 462.08 451.542 453.355Z" fill="#4488F0"/>
</g>
<path d="M514.85 411.912C519.638 412.444 524.426 412.657 529.214 413.242C551.612 415.956 572.838 427.287 587.628 444.311C590.554 447.769 593.32 451.44 594.863 455.696C595.289 457.026 595.608 458.516 595.023 459.739C594.544 460.644 593.64 461.176 592.735 461.708C576.935 470.805 557.942 472.082 539.695 471.603C521.075 471.071 502.029 468.836 485.165 460.856C483.196 459.899 481.228 458.835 479.951 457.079C478.674 455.27 478.408 452.93 478.196 450.748C477.132 438.512 477.823 423.084 483.356 411.806C485.697 406.965 488.889 407.231 493.73 408.188C500.752 409.625 507.722 411.168 514.85 411.912Z" fill="#4488F0"/>
<path d="M475.376 444.471C477.876 443.939 479.845 441.864 480.855 439.523C481.866 437.182 482.026 434.522 481.919 431.969C481.707 426.276 480.057 420.69 477.663 415.477C475.855 411.646 473.567 407.922 470.481 404.943C466.704 401.272 461.916 398.825 457.022 396.857C447.339 392.92 437.072 390.579 427.177 387.068C422.974 385.578 418.824 383.823 414.462 382.759C410.419 381.695 406.216 381.269 402.066 380.79C381.283 378.485 360.482 376.18 339.663 373.874C338.545 374.779 336.949 375.524 336.683 376.907C336.417 378.396 337.269 379.833 338.067 381.11C341.631 386.589 345.195 392.175 349.824 396.75C356.048 402.922 363.922 407.178 371.849 410.955C374.721 412.338 377.701 413.721 380.786 414.572C386.213 416.062 391.905 416.062 397.491 416.009C403.379 415.973 409.284 415.938 415.207 415.902C429.145 427.181 442.658 434.31 457.767 441.545C462.874 443.939 469.843 445.801 475.376 444.471Z" fill="#F0C49B"/>
<path d="M481.919 431.969C481.707 426.276 480.057 420.69 477.663 415.477C475.855 411.646 473.567 407.922 470.481 404.943C466.704 401.272 461.916 398.825 457.022 396.857C455.816 396.36 454.61 395.881 453.404 395.42C454.947 398.134 456.117 401.06 456.862 404.092C459.097 413.083 458.139 422.712 454.787 431.33C453.83 433.778 452.713 436.172 451.383 438.459C453.475 439.488 455.603 440.516 457.767 441.545C462.874 443.939 469.843 445.801 475.376 444.471C477.876 443.939 479.845 441.864 480.855 439.523C481.866 437.182 482.026 434.522 481.919 431.969Z" fill="#E0A988"/>
<path d="M408.291 412.125C401.055 409.997 393.075 410.636 386.159 407.656C382.701 406.167 379.669 403.879 376.53 401.911C372.274 399.251 367.699 397.07 363.337 394.676C353.92 389.462 345.302 383.025 336.896 376.322C336.79 376.499 336.719 376.694 336.683 376.907C336.417 378.396 337.269 379.833 338.067 381.11C341.631 386.589 345.195 392.175 349.824 396.75C356.048 402.922 363.922 407.178 371.849 410.955C374.721 412.338 377.701 413.721 380.786 414.572C386.213 416.062 391.905 416.062 397.491 416.009C403.379 415.973 409.284 415.938 415.207 415.902C415.207 415.938 415.224 415.973 415.26 416.009C414.994 415.743 414.728 415.424 414.462 415.211C412.653 413.721 410.472 412.817 408.291 412.125Z" fill="#E0A988"/>
<path d="M328.012 374.406C325.724 370.15 324.714 365.043 325.884 360.255C326.15 358.978 326.788 357.595 328.065 357.276C329.395 356.957 330.619 357.861 331.576 358.766C338.226 364.937 343.866 372.172 351.367 377.226C355.197 379.833 359.666 381.961 362.22 385.844C362.379 386.164 362.592 386.483 362.592 386.855C362.592 387.281 362.379 387.706 362.06 388.026C360.836 389.515 358.815 390.047 356.9 390.26C345.568 391.377 333.279 384.302 328.012 374.406Z" fill="#F0C49B"/>
<path d="M362.219 385.844C359.666 381.961 355.197 379.833 351.367 377.226C348.015 374.992 345.089 372.332 342.216 369.512C339.769 371.161 336.524 371.853 333.598 371.268C330.406 370.629 327.639 368.82 325.511 366.373C325.831 369.193 326.682 371.959 328.012 374.406C333.279 384.302 345.568 391.377 356.899 390.26C358.815 390.047 360.836 389.515 362.06 388.026C362.379 387.706 362.592 387.281 362.592 386.855C362.592 386.483 362.379 386.164 362.219 385.844Z" fill="#E0A988"/>
<path d="M284.76 408.188C285.345 410.316 287.739 411.593 289.974 411.593C292.208 411.54 294.283 410.423 296.145 409.199C301.412 405.848 305.827 401.326 310.562 397.282C315.35 393.133 320.511 389.462 325.618 385.685C326.416 385.1 327.214 384.461 327.693 383.61C329.714 380.099 325.777 376.8 322.532 376.641C319.447 376.481 317.531 379.46 315.35 381.269C308.647 386.802 301.731 392.122 295.241 397.868C291.57 401.113 288.059 404.518 284.76 408.188Z" fill="#F0C49B"/>
<path d="M322.532 376.641C319.447 376.481 317.531 379.46 315.35 381.269C311.999 384.036 308.647 386.696 305.295 389.409C302.795 392.441 300.401 395.527 298.486 398.932C296.624 402.336 295.294 406.06 295.028 409.944C295.418 409.696 295.79 409.447 296.145 409.199C301.412 405.848 305.827 401.326 310.562 397.282C315.35 393.133 320.511 389.462 325.618 385.685C326.416 385.1 327.214 384.461 327.693 383.61C329.714 380.152 325.777 376.8 322.532 376.641Z" fill="#E0A988"/>
<path d="M292.74 403.773C292.687 402.762 292.315 401.804 291.995 400.847C289.495 403.188 287.048 405.635 284.76 408.188C285.079 409.359 285.984 410.316 287.101 410.902C288.112 410.423 289.123 409.838 289.974 409.146C291.623 407.816 292.847 405.848 292.74 403.773Z" fill="#FAFDF8"/>
<path d="M335.619 386.589C328.863 390.366 322.373 394.622 316.308 399.357C314.339 400.9 312.371 402.496 310.935 404.518C307.849 408.88 307.477 414.785 302.582 418.243C301.359 419.094 299.869 419.36 298.379 419.254C298.007 419.201 297.635 419.148 297.369 418.882C297.05 418.509 297.103 417.977 297.209 417.498L300.029 402.177C300.295 400.581 300.933 399.091 301.944 397.814C306.413 391.909 311.999 384.568 317.372 378.396C318.542 377.12 319.713 375.79 321.309 375.151C322.692 374.566 324.235 374.566 325.777 374.566C333.757 374.619 359.347 377.013 366.901 379.62C368.231 380.046 366.422 387.44 366.901 388.824C367.486 390.632 351.739 383.397 350.143 384.461C345.993 387.121 340.407 387.866 335.619 386.589Z" fill="#F0C49B"/>
<path d="M360.836 380.737C356.58 379.088 352.112 378.29 347.643 377.598C344.451 377.066 341.259 376.57 338.067 376.109C335.62 375.79 332.64 375.311 330.512 376.641C325.086 380.046 320.351 384.568 315.936 389.249C313.861 391.537 311.786 393.824 310.084 396.378C305.562 402.975 303.487 410.902 301.678 418.722C301.997 418.58 302.299 418.42 302.582 418.243C307.477 414.785 307.849 408.88 310.935 404.518C312.371 402.496 314.34 400.9 316.308 399.357C322.373 394.622 328.863 390.366 335.62 386.589C340.408 387.866 345.994 387.121 350.143 384.461C351.739 383.397 367.486 390.632 366.901 388.824C366.635 388.132 366.954 386.004 367.22 383.929C365.146 382.706 363.071 381.588 360.836 380.737Z" fill="#E0A988"/>
<path d="M301.731 410.104C301.625 409.465 301.465 408.774 300.986 408.348C300.401 407.922 299.656 407.922 298.911 408.082L297.209 417.498C297.103 417.977 297.05 418.509 297.369 418.882C297.635 419.148 298.007 419.201 298.379 419.254C298.841 419.289 299.302 419.272 299.763 419.201C299.869 418.953 299.975 418.687 300.082 418.403C301.039 415.743 302.05 412.923 301.731 410.104Z" fill="#FAFDF8"/>
<path d="M310.615 405.103C310.083 402.549 308.328 400.262 306.04 399.038" stroke="#BA7A5D" stroke-width="2" stroke-linecap="round" stroke-linejoin="round"/>
<path d="M383.765 399.942C385.202 398.878 385.627 396.963 384.883 395.42C383.34 392.069 380.414 389.409 377.169 387.6C373.125 385.366 368.55 384.302 364.081 383.238C356.101 381.376 347.962 379.514 339.982 377.705C336.524 376.907 332.906 377.758 330.299 380.152C329.501 380.897 328.65 381.695 327.905 382.493C324.997 385.33 322.089 388.185 319.181 391.058C317.319 392.867 315.51 394.622 313.967 396.644C312.371 398.772 311.094 401.166 309.817 403.507C307.973 406.912 306.111 410.316 304.231 413.721C304.338 414.36 304.657 414.306 305.189 414.572C306.519 415.317 307.849 416.009 309.339 416.009C311.36 415.956 313.063 414.519 314.552 413.136C317.106 410.742 319.659 408.295 321.628 405.369C322.319 404.305 323.277 403.4 324.394 402.709C329.501 399.464 334.609 396.591 339.875 393.558C340.514 393.186 341.205 393.026 341.95 393.026C352.856 393.612 362.698 398.825 373.445 401.272C375.466 401.751 377.647 402.07 379.722 401.804C380.999 401.592 382.542 400.9 383.765 399.942Z" fill="#F0C49B"/>
<path d="M358.602 385.738C354.984 386.696 351.473 388.132 347.802 388.77C344.238 389.409 340.461 389.196 337.003 390.366C334.077 391.324 331.576 393.239 329.129 395.101C324.288 398.878 319.34 402.709 315.457 407.497C313.169 410.37 311.094 413.721 308.168 415.849C308.558 415.956 308.948 416.009 309.339 416.009C311.36 415.956 313.063 414.519 314.552 413.136C317.106 410.742 319.659 408.295 321.628 405.369C322.319 404.305 323.277 403.4 324.394 402.709C329.501 399.464 334.609 396.591 339.875 393.558C340.514 393.186 341.205 393.026 341.95 393.026C352.856 393.612 362.698 398.825 373.445 401.272C375.466 401.751 377.647 402.07 379.722 401.804C380.999 401.592 382.542 400.9 383.765 399.942C385.042 398.985 385.521 397.336 385.042 395.846C379.19 390.579 368.816 382.918 358.602 385.738Z" fill="#E0A988"/>
<path d="M338.173 394.09C339.769 393.239 340.461 391.271 340.461 389.462C340.408 387.653 339.769 385.951 339.344 384.195" stroke="#BA7A5D" stroke-width="2" stroke-linecap="round" stroke-linejoin="round"/>
<path d="M322.479 404.198C323.011 401.272 322.107 398.134 320.085 395.952" stroke="#BA7A5D" stroke-width="2" stroke-linecap="round" stroke-linejoin="round"/>
<path d="M311.626 409.412C311.892 408.135 311.52 406.646 310.456 405.848C309.977 405.528 309.392 405.369 308.807 405.369C307.282 408.171 305.757 410.955 304.231 413.721C304.338 414.36 304.657 414.306 305.189 414.572C306.093 415.104 306.998 415.583 307.955 415.796C308.594 414.838 309.232 413.881 309.871 412.923C310.615 411.806 311.36 410.689 311.626 409.412Z" fill="#FAFDF8"/>
<path d="M382.223 406.646C376.317 404.89 370.625 402.443 365.305 399.357C361.953 401.006 358.123 402.656 354.665 403.932C351.845 404.943 350.249 408.188 347.855 409.891C346.153 411.114 344.344 412.285 342.323 412.657C340.248 412.976 337.907 412.338 336.79 410.636C341.205 405.262 343.546 398.24 348.813 393.718C351.26 391.643 354.133 390.26 357.006 388.877C359.187 387.813 361.475 386.749 363.869 386.802C372.487 387.015 379.988 392.707 386.957 397.708C388.341 398.719 389.83 399.942 390.043 401.645C390.256 403.294 389.139 404.89 387.755 405.741C386.319 406.592 383.819 407.124 382.223 406.646Z" fill="#F0C49B"/>
<path d="M352.697 404.837C352.963 402.922 352.643 400.953 351.739 399.251" stroke="#BA7A5D" stroke-width="2" stroke-linecap="round" stroke-linejoin="round"/>
<path d="M365.252 399.357C365.624 398.666 365.784 397.868 365.837 397.07C365.943 395.58 365.677 394.144 365.358 392.654" stroke="#BA7A5D" stroke-width="2" stroke-linecap="round" stroke-linejoin="round"/>
<path d="M342.482 406.486C342.748 405.262 342.535 403.932 341.844 402.922C340.248 405.582 338.705 408.295 336.79 410.636C337.215 411.274 337.747 411.753 338.439 412.072C338.865 411.682 339.29 411.292 339.716 410.902C340.939 409.625 342.11 408.188 342.482 406.486Z" fill="#FAFDF8"/>
<path d="M453.191 455.802C461.065 448.514 466.225 438.3 467.396 427.606C468.619 416.966 465.906 405.848 459.895 396.963C465.321 400.262 471.439 402.602 477.717 403.666C482.664 404.464 487.931 403.773 492.613 405.635C497.507 407.497 501.071 411.966 502.88 416.86C504.689 421.754 504.902 427.128 504.583 432.394C503.944 441.917 501.497 451.334 497.454 460.005C496.975 461.016 496.496 461.974 495.698 462.718C494.9 463.41 493.836 463.836 492.825 464.155C479.153 468.57 464.044 465.219 453.191 455.802Z" fill="#4488F0"/>
<path opacity="0.5" d="M453.191 455.802C461.065 448.514 466.225 438.3 467.396 427.606C468.619 416.966 465.906 405.848 459.895 396.963C465.321 400.262 471.439 402.602 477.717 403.666C482.664 404.464 487.931 403.773 492.613 405.635C497.507 407.497 501.071 411.966 502.88 416.86C504.689 421.754 504.902 427.128 504.583 432.394C503.944 441.917 501.497 451.334 497.454 460.005C496.975 461.016 496.496 461.974 495.698 462.718C494.9 463.41 493.836 463.836 492.825 464.155C479.153 468.57 464.044 465.219 453.191 455.802Z" fill="white"/>
<path opacity="0.5" d="M502.88 416.86C501.071 411.966 497.507 407.497 492.613 405.635C490.431 404.784 488.144 404.464 485.856 404.305C489.953 420.531 488.144 438.246 480.536 453.196C483.728 436.225 481.228 418.19 473.514 402.762C468.726 401.485 464.097 399.517 459.895 396.963C465.906 405.848 468.619 416.966 467.396 427.606C466.225 438.3 461.065 448.514 453.191 455.802C464.044 465.219 479.153 468.57 492.825 464.155C493.836 463.836 494.9 463.41 495.698 462.718C496.496 461.974 496.975 461.016 497.454 460.005C501.497 451.334 503.944 441.917 504.583 432.394C504.902 427.128 504.689 421.754 502.88 416.86Z" fill="white"/>
<path d="M60.0434 250.663L74.7266 245.503C74.7621 245.503 74.8153 245.503 74.8862 245.503H244.009C249.914 245.503 255.021 249.706 256.139 255.504C262.682 289.233 287.207 399.676 288.75 405.848C290.612 413.242 289.708 432.98 273.961 432.926C260.501 432.82 109.626 407.656 101.646 406.38C101.433 406.326 101.273 406.167 101.22 406.007L59.7242 251.248C59.6178 250.982 59.7774 250.716 60.0434 250.663Z" fill="#434343"/>
<path d="M59.5647 250.823H234.539C241.881 250.823 248.318 255.877 249.967 263.059C258.852 300.884 284.973 413.668 283.058 419.892C280.717 427.34 278.962 429.575 270.822 428.458C262.682 427.34 109.839 415.051 105.21 414.998C100.635 414.998 96.0067 408.242 92.1231 394.09C88.2395 379.939 59.5647 250.823 59.5647 250.823Z" fill="#717171"/>
<path d="M107.179 412.764C107.179 412.764 104.146 416.009 108.402 421.701C112.658 427.34 115.85 425.957 115.85 425.957L304.551 442.236L304.285 429.788L107.179 412.764Z" fill="#434343"/>
<path d="M125.001 428.458C122.075 425.904 120.053 422.393 119.308 418.562C118.723 415.743 119.095 412.338 121.436 410.636C123.671 411.061 125.586 411.54 127.82 411.966C125.054 417.605 127.501 425.266 133.087 428.192C130.108 429.202 127.501 429.522 125.001 428.458Z" fill="#717171"/>
<path d="M274.705 424.893C272.258 427.074 271.194 430.532 271.567 433.778C271.939 437.023 273.695 440.002 276.089 442.236C272.524 442.024 268.481 443.46 265.555 441.438C262.363 439.257 260.82 435.374 260.182 431.596C259.65 428.617 259.969 424.893 262.682 423.457C266.619 424.095 270.662 425 274.705 424.893Z" fill="#717171"/>
<path opacity="0.2" d="M81.6958 259.228H232.624C236.933 259.228 240.657 262.154 241.615 266.357C248.531 295.777 274.28 406.433 272.471 412.338C270.396 419.094 268.747 421.063 261.405 420.052C254.064 419.094 115.637 407.922 111.488 407.869C107.338 407.869 103.135 401.751 99.6242 388.983C96.7514 378.609 79.2486 300.139 72.6518 270.507C71.375 264.708 75.7906 259.228 81.6958 259.228Z" fill="#FAFDF8"/>
<g opacity="0.5">
<path d="M173.785 337.964C175.594 347.062 171.551 355.467 164.794 356.797C158.038 358.127 151.175 351.796 149.366 342.699C147.611 333.602 151.654 325.196 158.357 323.866C165.114 322.536 172.03 328.867 173.785 337.964Z" stroke="#FAFDF8" stroke-width="6" stroke-linecap="round" stroke-linejoin="round"/>
</g>
</svg>
