<svg width="25" height="20" viewBox="0 0 25 20" fill="none" xmlns="http://www.w3.org/2000/svg">
<path d="M22.7491 0H2.44137C1.95174 0 1.48216 0.191558 1.13594 0.532533C0.78972 0.873508 0.595215 1.33597 0.595215 1.81818V18.1818C0.595215 18.664 0.78972 19.1265 1.13594 19.4675C1.48216 19.8084 1.95174 20 2.44137 20H22.7491C23.2387 20 23.7083 19.8084 24.0545 19.4675C24.4007 19.1265 24.5952 18.664 24.5952 18.1818V1.81818C24.5952 1.33597 24.4007 0.873508 24.0545 0.532533C23.7083 0.191558 23.2387 0 22.7491 0ZM8.53368 12C8.72953 12.1447 8.85901 12.36 8.89363 12.5987C8.92825 12.8374 8.86518 13.0798 8.71829 13.2727C8.5714 13.4656 8.35273 13.5931 8.11037 13.6272C7.86802 13.6613 7.62184 13.5992 7.42598 13.4545L3.73368 10.7273C3.61903 10.6426 3.52598 10.5328 3.4619 10.4066C3.39781 10.2803 3.36445 10.1411 3.36445 10C3.36445 9.85887 3.39781 9.71968 3.4619 9.59344C3.52598 9.46721 3.61903 9.35741 3.73368 9.27273L7.42598 6.54545C7.62184 6.40079 7.86802 6.33868 8.11037 6.37277C8.35273 6.40687 8.5714 6.53439 8.71829 6.72727C8.86518 6.92016 8.92825 7.16261 8.89363 7.40129C8.85901 7.63998 8.72953 7.85534 8.53368 8L5.8256 10L8.53368 12ZM15.3287 3.88636L11.6364 16.6136C11.6049 16.7305 11.5501 16.8399 11.4752 16.9356C11.4002 17.0314 11.3067 17.1114 11.1999 17.1711C11.0932 17.2307 10.9755 17.2689 10.8536 17.2832C10.7318 17.2975 10.6082 17.2878 10.4903 17.2546C10.3723 17.2213 10.2622 17.1652 10.1665 17.0896C10.0708 17.014 9.99132 16.9203 9.9328 16.814C9.87427 16.7078 9.83785 16.5912 9.82565 16.4709C9.81345 16.3506 9.82572 16.2292 9.86175 16.1136L13.5541 3.38636C13.625 3.15879 13.7838 2.96771 13.9963 2.85419C14.2087 2.74066 14.458 2.71375 14.6904 2.77923C14.9228 2.84471 15.1198 2.99736 15.2392 3.20437C15.3585 3.41139 15.3907 3.65626 15.3287 3.88636ZM21.4568 10.7273L17.7644 13.4545C17.5686 13.5992 17.3224 13.6613 17.0801 13.6272C16.8377 13.5931 16.619 13.4656 16.4721 13.2727C16.3252 13.0798 16.2622 12.8374 16.2968 12.5987C16.3314 12.36 16.4609 12.1447 16.6568 12L19.3648 10L16.6568 8C16.5598 7.92837 16.4781 7.83863 16.4163 7.7359C16.3546 7.63318 16.3139 7.51948 16.2968 7.40129C16.2797 7.28311 16.2863 7.16276 16.3164 7.04711C16.3465 6.93146 16.3994 6.82278 16.4721 6.72727C16.5449 6.63177 16.636 6.5513 16.7403 6.49048C16.8446 6.42965 16.9601 6.38966 17.0801 6.37277C17.2001 6.35589 17.3223 6.36245 17.4397 6.39208C17.5571 6.42171 17.6675 6.47382 17.7644 6.54545L21.4568 9.27273C21.5714 9.35741 21.6644 9.46721 21.7285 9.59344C21.7926 9.71968 21.826 9.85887 21.826 10C21.826 10.1411 21.7926 10.2803 21.7285 10.4066C21.6644 10.5328 21.5714 10.6426 21.4568 10.7273Z" fill="white"/>
</svg>
