<svg width="17" height="21" viewBox="0 0 17 21" fill="none" xmlns="http://www.w3.org/2000/svg">
<path d="M16.5256 12.21C16.5667 12.0193 16.551 11.8207 16.4807 11.6388C16.4103 11.4568 16.2883 11.2994 16.1296 11.186L2.12959 1.18597C1.97205 1.07268 1.78493 1.00773 1.59108 0.999048C1.39723 0.990363 1.20505 1.03832 1.03801 1.13706C0.870975 1.2358 0.736306 1.38105 0.650457 1.55506C0.564608 1.72908 0.531295 1.92433 0.554588 2.11697L2.55459 19.117C2.57761 19.3119 2.65747 19.4957 2.78421 19.6455C2.91096 19.7953 3.07899 19.9046 3.26737 19.9596C3.45575 20.0146 3.65616 20.013 3.84362 19.9549C4.03108 19.8968 4.1973 19.7848 4.32159 19.633L7.93359 15.217L11.3106 20.677L13.0116 19.625L9.65459 14.197L15.7436 12.979C15.9349 12.9415 16.1111 12.8487 16.2501 12.7119C16.3891 12.5752 16.4849 12.4007 16.5256 12.21Z" fill="#0252CD"/>
</svg>
