<svg width="23" height="22" viewBox="0 0 23 22" fill="none" xmlns="http://www.w3.org/2000/svg">
<path d="M2.49989 16.25V20H6.24989L17.3099 8.93001L13.5599 5.18001L2.49989 16.25ZM22.1099 17.36L17.8599 21.61L12.6599 16.41L14.4299 14.64L15.4299 15.64L17.8999 13.16L19.3199 14.58L17.8599 16L18.9199 17L20.3399 15.6L22.1099 17.36ZM6.10989 9.83001L0.889893 4.64001L5.13989 0.390015L6.89989 2.16001L4.42989 4.64001L5.49989 5.70001L7.95989 3.22001L9.37989 4.64001L7.95989 6.05001L8.95989 7.05001L6.10989 9.83001ZM20.2099 6.00001C20.5999 5.61001 20.5999 5.00001 20.2099 4.59001L17.8699 2.29001C17.4999 1.90001 16.8499 1.90001 16.4599 2.29001L14.6199 4.12001L18.3699 7.87001L20.2099 6.00001Z" fill="white"/>
</svg>
